<svg width="13" height="45" viewBox="0 0 13 45" fill="none" xmlns="http://www.w3.org/2000/svg">
<path d="M0.944 44.6V39.416H4.112C5.008 39.416 5.456 38.936 5.456 37.976V11.192H11.504V39.224C11.504 40.856 11.024 42.152 10.064 43.112C9.104 44.104 7.824 44.6 6.224 44.6H0.944ZM8.48 8.408C7.392 8.408 6.464 8.056 5.696 7.352C4.96 6.648 4.592 5.72 4.592 4.568C4.592 3.416 4.96 2.488 5.696 1.784C6.464 1.08 7.392 0.727998 8.48 0.727998C9.6 0.727998 10.528 1.08 11.264 1.784C12 2.488 12.368 3.416 12.368 4.568C12.368 5.72 12 6.648 11.264 7.352C10.528 8.056 9.6 8.408 8.48 8.408Z" fill="white"/>
</svg>
